<svg width="24" height="24" viewBox="0 0 24 24" fill="none" xmlns="http://www.w3.org/2000/svg">
<path d="M12.0002 1.92847C16.6159 1.92847 20.3574 5.6699 20.3574 10.2856C20.3574 13.817 17.8759 17.6656 12.9774 21.8725C12.705 22.1065 12.3577 22.235 11.9986 22.2347C11.6395 22.2343 11.2925 22.1052 11.0205 21.8708L10.6965 21.5896C6.01478 17.4925 3.64307 13.7382 3.64307 10.2856C3.64307 5.6699 7.38449 1.92847 12.0002 1.92847ZM12.0002 3.21418C10.1248 3.21418 8.32611 3.9592 6.99995 5.28535C5.6738 6.6115 4.92878 8.41015 4.92878 10.2856C4.92878 13.2873 7.11278 16.7459 11.5408 20.6202L11.8605 20.897C11.8994 20.9305 11.9489 20.9488 12.0002 20.9488C12.0515 20.9488 12.1011 20.9305 12.1399 20.897C16.7822 16.9096 19.0716 13.3585 19.0716 10.2856C19.0716 9.35698 18.8887 8.43744 18.5334 7.57949C18.178 6.72155 17.6571 5.942 17.0005 5.28535C16.3438 4.62871 15.5643 4.10783 14.7063 3.75246C13.8484 3.39709 12.9288 3.21418 12.0002 3.21418ZM12.0002 7.07132C12.8527 7.07132 13.6703 7.40997 14.2731 8.01277C14.8758 8.61556 15.2145 9.43313 15.2145 10.2856C15.2145 11.1381 14.8758 11.9557 14.2731 12.5585C13.6703 13.1612 12.8527 13.4999 12.0002 13.4999C11.1477 13.4999 10.3302 13.1612 9.72737 12.5585C9.12457 11.9557 8.78592 11.1381 8.78592 10.2856C8.78592 9.43313 9.12457 8.61556 9.72737 8.01277C10.3302 7.40997 11.1477 7.07132 12.0002 7.07132ZM12.0002 8.35704C11.4887 8.35704 10.9982 8.56023 10.6365 8.9219C10.2748 9.28358 10.0716 9.77412 10.0716 10.2856C10.0716 10.7971 10.2748 11.2876 10.6365 11.6493C10.9982 12.011 11.4887 12.2142 12.0002 12.2142C12.5117 12.2142 13.0022 12.011 13.3639 11.6493C13.7256 11.2876 13.9288 10.7971 13.9288 10.2856C13.9288 9.77412 13.7256 9.28358 13.3639 8.9219C13.0022 8.56023 12.5117 8.35704 12.0002 8.35704Z" fill="white"/>
</svg>
