<svg width="24" height="24" viewBox="0 0 24 24" fill="none" xmlns="http://www.w3.org/2000/svg">
<path d="M18.875 4.5C20.325 4.5 21.5 5.675 21.5 7.125V16.875C21.5 18.325 20.325 19.5 18.875 19.5H5.125C4.42881 19.5 3.76113 19.2234 3.26884 18.7312C2.77656 18.2389 2.5 17.5712 2.5 16.875V7.125C2.5 5.675 3.675 4.5 5.125 4.5H18.875ZM20.25 9.1755L12.301 13.5475C12.2192 13.5925 12.1284 13.6186 12.0352 13.6238C11.942 13.6291 11.8488 13.6134 11.7625 13.578L11.699 13.548L3.75 9.175V16.875C3.75 17.2397 3.89487 17.5894 4.15273 17.8473C4.41059 18.1051 4.76033 18.25 5.125 18.25H18.875C19.2397 18.25 19.5894 18.1051 19.8473 17.8473C20.1051 17.5894 20.25 17.2397 20.25 16.875V9.1755ZM18.875 5.75H5.125C4.76033 5.75 4.41059 5.89487 4.15273 6.15273C3.89487 6.41059 3.75 6.76033 3.75 7.125V7.7495L12 12.2865L20.25 7.749V7.125C20.25 6.76033 20.1051 6.41059 19.8473 6.15273C19.5894 5.89487 19.2397 5.75 18.875 5.75Z" fill="white"/>
</svg>
