<svg width="24" height="25" viewBox="0 0 24 25" fill="none" xmlns="http://www.w3.org/2000/svg">
<path d="M18 10.25H16.5C16.4994 9.65345 16.2622 9.0815 15.8403 8.65967C15.4185 8.23784 14.8466 8.0006 14.25 8V6.5C15.2442 6.50119 16.1973 6.89666 16.9003 7.59966C17.6033 8.30267 17.9988 9.2558 18 10.25Z" fill="white"/>
<path d="M21 10.25H19.5C19.4984 8.8581 18.9448 7.52367 17.9606 6.53944C16.9763 5.55522 15.6419 5.00159 14.25 5V3.5C16.0396 3.50199 17.7553 4.21378 19.0208 5.47922C20.2862 6.74466 20.998 8.4604 21 10.25Z" fill="white"/>
<path d="M18.8084 22.5H18.6842C4.3295 21.6308 2.29135 8.87692 2.00645 4.98462C1.96192 4.37442 2.1494 3.77059 2.52764 3.30594C2.90589 2.84129 3.44393 2.55388 4.02341 2.50692C4.08137 2.50231 4.13956 2.5 4.19801 2.5H8.04785C8.34046 2.4997 8.62642 2.59193 8.86868 2.76474C9.11094 2.93755 9.29835 3.18298 9.40661 3.46923L10.517 6.34615C10.6239 6.62581 10.6504 6.93237 10.5933 7.22776C10.5362 7.52316 10.3979 7.79436 10.1956 8.00769L8.63957 9.66154C8.88163 11.1164 9.54277 12.4577 10.5333 13.5035C11.5239 14.5493 12.7959 15.249 14.1769 15.5077L15.7621 13.8538C15.9678 13.6432 16.2278 13.501 16.5097 13.4449C16.7916 13.3888 17.0829 13.4213 17.3474 13.5385L20.1014 14.7C20.3692 14.8176 20.5976 15.0165 20.7576 15.2713C20.9177 15.5261 21.002 15.8253 21 16.1308V20.1923C21 20.8043 20.7691 21.3913 20.3581 21.8241C19.9471 22.2569 19.3896 22.5 18.8084 22.5ZM4.19801 4.03846C4.10207 4.03816 4.00702 4.05776 3.91828 4.09613C3.82954 4.13451 3.74885 4.19092 3.68081 4.26213C3.61277 4.33335 3.55872 4.41798 3.52174 4.51119C3.48476 4.6044 3.46558 4.70437 3.46529 4.80539C3.46529 4.82692 3.46603 4.84821 3.46749 4.86923C3.80353 9.42308 5.95856 20.1923 18.7646 20.9615C18.9579 20.9737 19.148 20.9046 19.2929 20.7693C19.4378 20.634 19.5258 20.4436 19.5375 20.24L19.5389 20.1923V16.1308L16.7849 14.9692L14.6883 17.1615L14.3376 17.1154C7.9821 16.2769 7.12009 9.58462 7.12009 9.51539L7.07625 9.14615L9.15093 6.93846L8.05515 4.03846H4.19801Z" fill="white"/>
</svg>
